Coordinates
version=1
nRows=7
nColumns=33
inDegrees=yes

Units are S.I. units (second, meters, Newtons, ...)
Angles are in degrees.

endheader
time	ground_thorax_rot_x	ground_thorax_rot_y	ground_thorax_rot_z	ground_thorax_tx	ground_thorax_ty	ground_thorax_tz	clav_prot_r	clav_elev_r	scapula_abduction_r	scapula_elevation_r	scapula_upward_rot_r	scapula_winging_r	shoulder_elv_r	plane_of_elev_r	axial_rot_r	elbow_flexion_r	pro_sup_r	wrist_flex_r	wrist_dev_r	clav_prot_l	clav_elev_l	scapula_abduction_l	scapula_elevation_l	scapula_upward_rot_l	scapula_winging_l	shoulder_elv_l	plane_of_elev_l	axial_rot_l	elbow_flexion_l	pro_sup_l	wrist_flex_l	wrist_dev_l
      4.54000000	    -22.69891485	    -38.05263267	     55.34518516	    -99.30613278	    830.80021403	    -43.44337206	     24.67923359	    -45.00000000	     45.00000000	    -45.00000000	    -32.55287558	  -3721.71041154	  -2974.56532195	    143.17554793	   -179.99999979	   1788.35525116	    417.90792208	     23.62689230	     17.22698894	     -5.69306522	     38.06364918	    -33.59456159	    -45.00000000	    -35.74287954	  -1337.97914920	  -3695.87522155	    142.74788576	    179.99999979	    354.72708741	   -322.58513271	     15.27552341	    -21.34809029
      4.55000000	    -23.27535188	    -37.72873375	     54.31277962	   -101.37010612	    833.75164942	    -43.83260715	     24.17252316	    -45.00000000	     45.00000000	    -45.00000000	    -32.00392989	  -3721.42177596	  -2974.24470070	    143.32592789	   -179.99999979	   1788.46894701	    417.68286454	     24.02627551	     17.53860105	     -5.08533978	     38.32962267	    -33.62060710	    -45.00000000	    -35.01358960	  -1338.13036638	  -3695.73192525	    142.81574416	    179.99999979	    354.75830433	   -322.72210701	     15.12624544	    -21.31417068
      4.56000000	    -23.60274564	    -37.58472818	     53.61024488	   -103.31411789	    836.70905938	    -44.20662201	     24.42526928	    -45.00000000	     45.00000000	    -45.00000000	    -31.90981754	  -3721.27949279	  -2974.11418360	    143.28568207	   -179.99999979	   1788.56300009	    417.43248129	     24.08245944	     17.32238845	     -5.56738420	     38.20951663	    -34.00222942	    -45.00000000	    -35.16634153	  -1337.91431711	  -3695.76047812	    142.83844525	    179.99999979	    354.83631485	   -322.80770083	     15.31912843	    -21.65726905
      4.57000000	    -24.04566645	    -37.25426858	     52.76515565	   -105.14419056	    839.66481694	    -44.56391839	     24.05800987	    -45.00000000	     45.00000000	    -45.00000000	    -31.60982717	  -3721.02018473	  -2973.84066895	    143.48114280	   -179.99999979	   1788.70071692	    417.24890924	     24.45859324	     17.56932700	     -5.04083120	     38.43639826	    -34.06981844	    -45.00000000	    -34.48781997	  -1337.96323996	  -3695.67102293	    142.83413090	    179.99999979	    354.91490307	   -322.79165353	     15.17760865	    -21.68847093
      4.58000000	    -24.47702737	    -37.00770557	     51.92415888	   -106.84353941	    842.56768315	    -44.90141664	     24.19880074	    -45.00000000	     45.00000000	    -45.00000000	    -31.18199226	  -3720.90406524	  -2973.70318037	    143.47172439	   -179.99999979	   1788.76566176	    417.05842852	     24.51695000	     17.35983354	     -5.45846248	     38.31747559	    -34.37881863	    -45.00000000	    -34.56730857	  -1337.86803822	  -3695.67619469	    142.83464848	    179.99999979	    355.11513839	   -322.75072765	     15.31458255	    -22.10275220
      4.59000000	    -24.88510739	    -36.76423313	     51.04888578	   -108.41369143	    845.40239881	    -45.21823297	     23.84359225	    -45.00000000	     45.00000000	    -45.00000000	    -30.68823676	  -3720.63978225	  -2973.44073499	    143.51172439	   -179.99999979	   1788.87544219	    416.95975226	     24.80807067	     17.53371305	     -5.01604067	     38.51503243	    -34.44942815	    -45.00000000	    -33.86869580	  -1337.88498984	  -3695.63340046	    142.92968175	    179.99999979	    355.08170894	   -322.62131173	     15.19907996	    -22.14385339
      4.60000000	    -25.31045751	    -36.48838940	     50.22238550	   -109.84054001	    848.12237029	    -45.51304649	     23.67979635	    -45.00000000	     45.00000000	    -45.00000000	    -30.28263666	  -3720.43300333	  -2973.24571870	    143.61629231	   -179.99999979	   1788.99859550	    416.89201473	     25.07954320	     17.60891962	     -4.80039496	     38.57300587	    -34.65116701	    -45.00000000	    -33.38898688	  -1337.79433157	  -3695.62118586	    142.93216763	    179.99999979	    355.17341421	   -322.48193088	     15.12280313	    -22.30418777
